name C:\Users\u0150099\Documents\master_thesis\3dpredictsim\Results\debug\Fal_s1_mtj_sc_cspx10_oy_MTPm_k1_d01_MTJm_nl_MG_exp_table_d01_PF_Natali2010_x5_ls146_ig21.mot
datacolumns 128
datarows 4
range 1.57984915 1.61144614
endheader
time	pelvis_tilt	pelvis_list	pelvis_rotation	pelvis_tx	pelvis_ty	pelvis_tz	hip_flexion_l	hip_adduction_l	hip_rotation_l	hip_flexion_r	hip_adduction_r	hip_rotation_r	knee_angle_l	knee_angle_r	ankle_angle_l	ankle_angle_r	subtalar_angle_l	subtalar_angle_r	mtj_angle_l	mtj_angle_r	mtp_angle_l	mtp_angle_r	lumbar_extension	lumbar_bending	lumbar_rotation	arm_flex_l	arm_add_l	arm_rot_l	arm_flex_r	arm_add_r	arm_rot_r	elbow_flex_l	elbow_flex_r	pro_sup_l	pro_sup_r	glut_med1_l/activation	glut_med2_l/activation	glut_med3_l/activation	glut_min1_l/activation	glut_min2_l/activation	glut_min3_l/activation	semimem_l/activation	semiten_l/activation	bifemlh_l/activation	bifemsh_l/activation	sar_l/activation	add_long_l/activation	add_brev_l/activation	add_mag1_l/activation	add_mag2_l/activation	add_mag3_l/activation	tfl_l/activation	pect_l/activation	grac_l/activation	glut_max1_l/activation	glut_max2_l/activation	glut_max3_l/activation	iliacus_l/activation	psoas_l/activation	quad_fem_l/activation	gem_l/activation	peri_l/activation	rect_fem_l/activation	vas_med_l/activation	vas_int_l/activation	vas_lat_l/activation	med_gas_l/activation	lat_gas_l/activation	soleus_l/activation	tib_post_l/activation	flex_dig_l/activation	flex_hal_l/activation	tib_ant_l/activation	per_brev_l/activation	per_long_l/activation	per_tert_l/activation	ext_dig_l/activation	ext_hal_l/activation	ercspn_l/activation	intobl_l/activation	extobl_l/activation	glut_med1_r/activation	glut_med2_r/activation	glut_med3_r/activation	glut_min1_r/activation	glut_min2_r/activation	glut_min3_r/activation	semimem_r/activation	semiten_r/activation	bifemlh_r/activation	bifemsh_r/activation	sar_r/activation	add_long_r/activation	add_brev_r/activation	add_mag1_r/activation	add_mag2_r/activation	add_mag3_r/activation	tfl_r/activation	pect_r/activation	grac_r/activation	glut_max1_r/activation	glut_max2_r/activation	glut_max3_r/activation	iliacus_r/activation	psoas_r/activation	quad_fem_r/activation	gem_r/activation	peri_r/activation	rect_fem_r/activation	vas_med_r/activation	vas_int_r/activation	vas_lat_r/activation	med_gas_r/activation	lat_gas_r/activation	soleus_r/activation	tib_post_r/activation	flex_dig_r/activation	flex_hal_r/activation	tib_ant_r/activation	per_brev_r/activation	per_long_r/activation	per_tert_r/activation	ext_dig_r/activation	ext_hal_r/activation	ercspn_r/activation	intobl_r/activation	extobl_r/activation	
          1.57984915	         -2.93004861	          1.27332063	         -2.79250060	          2.10119937	          0.91077860	          0.00352769	         27.73974499	          3.04419577	         -2.76559069	        -17.17862973	          1.99578903	          6.86582555	         -7.73227797	         -7.22680542	          7.00668443	          7.05166504	         -4.73929725	          1.76262844	         -0.79681267	         -1.60942013	          4.21949270	         14.61415984	         -3.18455467	         -0.31376271	          1.97287063	         -5.29222065	        -13.45027295	          6.60244562	          4.28849373	        -13.59785864	         19.25012105	         23.91901065	         30.92318845	         86.51662706	         86.51662706	          0.05000015	          0.05000133	          0.05000042	          0.05877190	          0.05000747	          0.05000114	          0.17465744	          0.06909620	          0.30191798	          0.05525826	          0.05000051	          0.14927401	          0.15135340	          0.13333192	          0.11727767	          0.09226978	          0.05000032	          0.05001665	          0.12590274	          0.05000108	          0.05000074	          0.06491491	          0.05000037	          0.05000048	          0.13100707	          0.05002802	          0.05001270	          0.05000021	          0.05000069	          0.05000067	          0.05000058	          0.06410489	          0.05000040	          0.05000013	          0.05000071	          0.06258705	          0.05877718	          0.37942056	          0.24681998	          0.15497394	          0.18301113	          0.49900570	          0.05877687	          0.06909530	          0.10035104	          0.12030979	          0.39150299	          0.09772462	          0.08635136	          0.51005375	          0.25845707	          0.11316862	          0.05000124	          0.05000017	          0.05000012	          0.09447705	          0.11224149	          0.05000009	          0.05000011	          0.05000025	          0.05000075	          0.05000042	          0.59100870	          0.05000053	          0.05000057	          0.05003648	          0.05000451	          0.05000118	          0.35698979	          0.79543177	          0.05000036	          0.05000384	          0.05877698	          0.26209489	          0.05000022	          0.05000026	          0.05000026	          0.36385145	          0.45114017	          0.37578599	          0.43069924	          0.17973440	          0.41272436	          0.05000001	          0.05000022	          0.23458432	          0.05000017	          0.05877695	          0.13307435	          0.05000001	          0.05000001	          0.05000001	
          1.59038148	         -2.92967986	          1.35159494	         -2.99870014	          2.11756204	          0.91049170	          0.00330586	         27.27647887	          3.37658385	         -2.66957210	        -17.11237083	          1.78926911	          6.81548919	         -7.54000565	         -9.05637449	          6.67196342	          6.50596021	         -4.85360054	          2.44540604	         -0.55527723	         -2.65447044	          3.33799472	         17.76662230	         -3.02432032	         -0.51847534	          2.08524273	         -5.93788538	        -13.45396822	          6.45482278	          3.92251541	        -13.54105869	         19.09826214	         23.41905281	         32.14530169	         86.51662706	         86.51662706	          0.10909698	          0.05000009	          0.05000304	          0.05000008	          0.05000010	          0.05000040	          0.15969134	          0.05877833	          0.27594028	          0.05880141	          0.05000043	          0.12698370	          0.16088485	          0.19118605	          0.13249775	          0.11679791	          0.05000189	          0.05877916	          0.12013250	          0.05003046	          0.05877910	          0.09215302	          0.05000013	          0.05000019	          0.25440686	          0.05001746	          0.05000058	          0.05000005	          0.05000029	          0.05000026	          0.05000025	          0.05453327	          0.05000229	          0.05000002	          0.06909455	          0.05324121	          0.05000041	          0.39455647	          0.24446171	          0.18424570	          0.17227460	          0.53743727	          0.05000002	          0.05877757	          0.08536600	          0.10234439	          0.35561072	          0.08313178	          0.07345684	          0.43388981	          0.21986268	          0.09626959	          0.05000079	          0.05000010	          0.05000007	          0.08036916	          0.09548099	          0.05000064	          0.05000016	          0.05000020	          0.05000066	          0.05000046	          0.53132066	          0.05000123	          0.05000019	          0.05000066	          0.05000041	          0.05000037	          0.30368189	          0.77778718	          0.05000003	          0.05000007	          0.05000006	          0.22295751	          0.05901292	          0.05000162	          0.05000121	          0.30951888	          0.38377312	          0.32619332	          0.41057146	          0.18799823	          0.42878904	          0.05000000	          0.05877695	          0.19955474	          0.05000013	          0.05000003	          0.11320295	          0.05000000	          0.05000000	          0.05000001	
          1.60091381	         -2.92669131	          1.43526493	         -3.19346626	          2.13420614	          0.91027514	          0.00305318	         26.81127192	          3.69861511	         -2.54516097	        -16.94665850	          1.56263923	          6.73998501	         -7.88669114	        -11.02236597	          6.02105601	          5.75728252	         -4.93522879	          3.23102245	         -0.29740965	         -3.79597654	          2.46564286	         21.20963118	         -2.84862346	         -0.73293513	          2.19074147	         -6.61686925	        -13.47430398	          6.43244437	          3.47722470	        -13.50113371	         18.94269973	         22.96431610	         33.41916981	         86.51662706	         86.51662706	          0.09575767	          0.05332208	          0.05000015	          0.05877692	          0.05877680	          0.05000065	          0.13584526	          0.05000123	          0.23473528	          0.05002091	          0.06177057	          0.10802179	          0.13686059	          0.27032105	          0.21863051	          0.15073916	          0.05000014	          0.05000281	          0.10219371	          0.05000103	          0.05000197	          0.12840271	          0.05508281	          0.06032020	          0.56197079	          0.12813059	          0.05000464	          0.06909455	          0.06910177	          0.08674596	          0.06909495	          0.07199345	          0.08122316	          0.05000000	          0.05877694	          0.05000008	          0.05000042	          0.42847493	          0.37009731	          0.17033638	          0.21049566	          0.55765317	          0.05877699	          0.05000054	          0.07261862	          0.08706169	          0.30250875	          0.07071803	          0.06248792	          0.36909873	          0.18703145	          0.08189404	          0.05000225	          0.05000022	          0.05000033	          0.06836794	          0.08122325	          0.08305631	          0.11928505	          0.05000307	          0.05000369	          0.05000221	          0.52316300	          0.06855288	          0.05000080	          0.05000089	          0.05000062	          0.05000082	          0.25833423	          0.71075741	          0.05000015	          0.06909307	          0.05877701	          0.18966425	          0.05523504	          0.15510548	          0.14814022	          0.26329959	          0.32646573	          0.27748410	          0.35349323	          0.15992532	          0.36476055	          0.05000000	          0.05000003	          0.16975599	          0.05000003	          0.05000001	          0.09629895	          0.05000003	          0.06909459	          0.05000014	
          1.61144614	         -2.92146007	          1.53878637	         -3.37655669	          2.15107582	          0.91007569	          0.00279624	         26.32324251	          3.96389330	         -2.37847900	        -16.69008261	          1.30782437	          6.63007633	         -8.68140818	        -13.08156046	          5.08638799	          4.73771219	         -5.01222414	          4.05787268	         -0.09928050	         -5.00267729	          1.58383963	         24.93520652	         -2.66135289	         -0.97063136	          2.28524579	         -7.31729870	        -13.51633935	          6.52045263	          2.96291497	        -13.47498985	         18.79075950	         22.54322001	         34.74505531	         86.51662706	         86.51662706	          0.30896306	          0.05000003	          0.32699822	          0.05000006	          0.05000005	          0.05000009	          0.12856338	          0.05000010	          0.20151353	          0.05000006	          0.05877708	          0.09189139	          0.30476851	          0.22995587	          0.22156921	          0.21204338	          0.05000018	          0.06909343	          0.13579076	          0.05000010	          0.05000019	          0.21362810	          0.05877699	          0.05877687	          0.47805385	          0.10899740	          0.14190890	          0.05877694	          0.05878318	          0.07379260	          0.05877736	          0.06124301	          0.06909447	          0.06152192	          0.05000001	          0.06909473	          0.05877784	          0.51487543	          0.32208949	          0.16146547	          0.24291646	          0.53415572	          0.05000005	          0.05000000	          0.06177476	          0.07406110	          0.25733643	          0.06015798	          0.05877688	          0.31398269	          0.15910277	          0.06966512	          0.05000107	          0.05000033	          0.05000054	          0.05815883	          0.06909457	          0.13677677	          0.12960240	          0.05877688	          0.05877112	          0.07247098	          0.55025724	          0.06908021	          0.05877583	          0.05877640	          0.05877666	          0.05877670	          0.21975817	          0.68548131	          0.05877692	          0.05877600	          0.05000009	          0.16134242	          0.11946002	          0.13194428	          0.12601911	          0.22398205	          0.27771583	          0.23604844	          0.30070743	          0.13604430	          0.31029230	          0.05000003	          0.05000001	          0.16153196	          0.05000002	          0.05000002	          0.08191907	          0.06733947	          0.05877696	          0.05877688	
